<?xml version="1.0" standalone="no"?>
<!DOCTYPE svg PUBLIC "-//W3C//DTD SVG 20010904//EN"
 "http://www.w3.org/TR/2001/REC-SVG-20010904/DTD/svg10.dtd">
<svg version="1.0" xmlns="http://www.w3.org/2000/svg"
 width="512.000000pt" height="512.000000pt" viewBox="0 0 512.000000 512.000000"
 preserveAspectRatio="xMidYMid meet">

<g transform="translate(0.000000,512.000000) scale(0.100000,-0.100000)"
fill="#000000" stroke="none">
<path d="M3054 4936 c-36 -16 -40 -22 -129 -163 -131 -211 -410 -583 -728
-972 -84 -102 -170 -203 -192 -225 -66 -64 -177 -133 -405 -252 -495 -258
-549 -293 -711 -454 -190 -190 -413 -483 -682 -898 -214 -329 -229 -364 -189
-438 24 -44 1334 -1341 1367 -1354 38 -14 82 -12 120 6 37 17 115 113 327 404
213 291 320 399 463 466 145 69 127 67 800 74 595 5 611 6 663 27 121 49 134
62 716 728 309 353 573 664 588 691 35 65 58 153 58 223 0 57 -255 1146 -286
1219 -8 20 -28 58 -45 83 -32 51 -832 803 -883 831 -40 22 -88 22 -129 2 -17
-9 -76 -51 -132 -94 -55 -42 -106 -80 -113 -84 -8 -5 -29 6 -56 28 -64 52
-158 105 -247 137 -87 32 -128 35 -175 15z m187 -354 c59 -38 115 -102 124
-142 20 -92 -67 -282 -389 -849 -277 -486 -326 -594 -326 -719 0 -85 28 -201
72 -292 34 -71 56 -100 132 -175 75 -75 108 -99 186 -138 141 -70 225 -89 400
-91 l146 -1 74 37 c129 63 304 204 557 444 121 115 155 153 164 185 11 35 5
86 -55 447 -37 224 -70 418 -73 432 -4 15 -116 136 -283 305 -295 298 -308
315 -297 397 3 21 12 50 21 63 19 28 127 116 138 112 16 -5 686 -634 706 -662
15 -21 60 -192 152 -572 71 -299 130 -555 130 -571 0 -15 -8 -43 -18 -62 -16
-32 -1038 -1207 -1093 -1257 -13 -12 -37 -26 -52 -32 -19 -7 -211 -11 -570
-11 -668 0 -735 -8 -932 -107 -195 -98 -328 -230 -583 -580 -73 -100 -137
-185 -142 -188 -5 -3 -253 236 -550 532 l-541 538 123 190 c245 377 481 688
638 845 115 114 216 179 535 343 303 156 429 230 527 312 128 105 675 791 932
1168 48 70 91 127 95 127 4 0 27 -13 52 -28z m784 -1309 l55 -332 -87 -84
c-171 -163 -309 -279 -412 -346 -59 -38 -70 -41 -130 -41 -267 1 -478 159
-497 372 -6 61 -4 66 50 175 30 62 135 253 232 425 97 172 208 373 247 447
l70 133 208 -208 208 -209 56 -332z"/>
</g>
</svg>
